<svg xmlns="http://www.w3.org/2000/svg" viewBox="0 0 256 256"><defs><style>.cls-1{fill:#f8fcfe00;}.cls-2{fill:#0ad9fe;}.cls-3{fill:#0ad9fe;}</style></defs><title>Asset 1</title><g id="Layer_2" data-name="Layer 2"><g id="Layer_1-2" data-name="Layer 1"><path class="cls-1" d="M.08,128Q.08,65.8,0,3.58C0,.6.6,0,3.58,0Q128,.15,252.42,0c3,0,3.58.6,3.58,3.58q-.15,124.43,0,248.84c0,3-.6,3.58-3.58,3.58Q128,255.85,3.58,256c-3,0-3.59-.6-3.58-3.58Q.18,190.21.08,128ZM66.36,244.47v0c17,0,34-.06,50.94,0,3.17,0,4.78-.41,4.76-4.25q-.21-51.19,0-102.38c0-3-.93-4-4-4q-51.18.23-102.37.15c-3.36,0-4.22,1-4.21,4.26q.13,50.94-.06,101.89c0,3.66,1.21,4.39,4.57,4.36C32.73,244.39,49.54,244.47,66.36,244.47ZM11.44,66.59h0c0,17,.1,34-.07,50.94,0,3.55,1.1,4.49,4.54,4.47q50.69-.15,101.37,0c3.75,0,4.8-1.1,4.79-4.82q-.19-50.68,0-101.36c0-3.5-1-4.54-4.51-4.52q-50.68.2-101.37,0c-3.74,0-4.81,1.06-4.77,4.8C11.55,33,11.44,49.78,11.44,66.59Zm232.81.25c0-16.48-.16-33,.11-49.43.07-4.56-1.15-5.86-5.77-5.84-33.62.18-67.24.1-100.86,0-3.07,0-3.62,1.12-3.62,3.77q.09,51.18,0,102.36c0,3.37,1.23,4.23,4.39,4.22q50.69-.15,101.37,0c3.57,0,4.48-1.19,4.45-4.6C244.18,100.46,244.26,83.65,244.25,66.84ZM189.46,244.27c16.49,0,33-.17,49.45.12,4.54.08,5.49-1.34,5.46-5.64q-.27-49.69,0-99.4c0-3.72-.69-5.22-4.86-5.2q-50.21.21-100.4-.09c-4.11,0-5,1.36-5,5.18q.24,50.2.08,100.4c0,3.86,1.22,4.73,4.85,4.7C155.83,244.16,172.65,244.26,189.46,244.27Z" transform="translate(0)"/><path class="cls-2" d="M66.36,244.47c-16.82,0-33.63-.08-50.44.07-3.36,0-4.58-.7-4.57-4.36q.24-50.94.06-101.89c0-3.24.85-4.27,4.21-4.26q51.18.1,102.37-.15c3.09,0,4,1,4,4q-.11,51.18,0,102.38c0,3.84-1.59,4.27-4.76,4.25-17-.11-34,0-50.94,0Z" transform="translate(0)"/><path class="cls-3" d="M11.44,66.59c0-16.81.11-33.62-.08-50.43,0-3.74,1-4.81,4.77-4.8q50.69.18,101.37,0c3.52,0,4.52,1,4.51,4.52q-.17,50.67,0,101.36c0,3.72-1,4.84-4.79,4.82q-50.68-.21-101.37,0c-3.44,0-4.58-.92-4.54-4.47.17-17,.07-34,.07-50.94Z" transform="translate(0)"/><path class="cls-3" d="M244.25,66.84c0,16.81-.07,33.62.08,50.43,0,3.41-.88,4.61-4.45,4.6q-50.68-.16-101.37,0c-3.16,0-4.4-.85-4.39-4.22q.12-51.18,0-102.36c0-2.65.55-3.78,3.62-3.77,33.62.14,67.24.22,100.86,0,4.62,0,5.84,1.28,5.77,5.84C244.09,33.88,244.25,50.36,244.25,66.84Z" transform="translate(0)"/><path class="cls-3" d="M189.46,244.27c-16.81,0-33.63-.11-50.45.07-3.63,0-4.87-.84-4.85-4.7q.18-50.2-.08-100.4c0-3.82.88-5.2,5-5.18q50.19.28,100.4.09c4.17,0,4.88,1.48,4.86,5.2q-.18,49.71,0,99.4c0,4.3-.92,5.72-5.46,5.64C222.43,244.1,206,244.27,189.46,244.27Z" transform="translate(0)"/></g></g></svg>